<svg width="72" height="60" viewBox="0 0 72 60" fill="none" xmlns="http://www.w3.org/2000/svg">
<rect width="72" height="60" rx="8" fill="white"/>
<path d="M6.992 39V22.2H14.264C15.768 22.2 17.064 22.448 18.152 22.944C19.24 23.424 20.08 24.12 20.672 25.032C21.264 25.944 21.56 27.032 21.56 28.296C21.56 29.544 21.264 30.624 20.672 31.536C20.08 32.432 19.24 33.12 18.152 33.6C17.064 34.08 15.768 34.32 14.264 34.32H9.152L10.88 32.616V39H6.992ZM17.672 39L13.472 32.904H17.624L21.872 39H17.672ZM10.88 33.048L9.152 31.224H14.048C15.248 31.224 16.144 30.968 16.736 30.456C17.328 29.928 17.624 29.208 17.624 28.296C17.624 27.368 17.328 26.648 16.736 26.136C16.144 25.624 15.248 25.368 14.048 25.368H9.152L10.88 23.52V33.048ZM35.8964 22.2H39.7844V39H35.8964V22.2ZM28.2644 39H24.3764V22.2H28.2644V39ZM36.1844 32.112H27.9764V28.824H36.1844V32.112ZM43.4953 39V22.2H50.7673C52.2713 22.2 53.5673 22.448 54.6553 22.944C55.7433 23.424 56.5833 24.12 57.1753 25.032C57.7673 25.944 58.0633 27.032 58.0633 28.296C58.0633 29.544 57.7673 30.624 57.1753 31.536C56.5833 32.448 55.7433 33.152 54.6553 33.648C53.5673 34.128 52.2713 34.368 50.7673 34.368H45.6553L47.3833 32.616V39H43.4953ZM47.3833 33.048L45.6553 31.2H50.5513C51.7513 31.2 52.6473 30.944 53.2393 30.432C53.8313 29.92 54.1273 29.208 54.1273 28.296C54.1273 27.368 53.8313 26.648 53.2393 26.136C52.6473 25.624 51.7513 25.368 50.5513 25.368H45.6553L47.3833 23.52V33.048Z" fill="#1A2033"/>
<path d="M61.9614 39.192C61.3214 39.192 60.7694 38.976 60.3054 38.544C59.8574 38.096 59.6334 37.528 59.6334 36.84C59.6334 36.152 59.8574 35.6 60.3054 35.184C60.7694 34.752 61.3214 34.536 61.9614 34.536C62.6174 34.536 63.1694 34.752 63.6174 35.184C64.0654 35.6 64.2894 36.152 64.2894 36.84C64.2894 37.528 64.0654 38.096 63.6174 38.544C63.1694 38.976 62.6174 39.192 61.9614 39.192Z" fill="#FCA311"/>
</svg>
