<svg width="20" height="20" viewBox="0 0 20 20" fill="none" xmlns="http://www.w3.org/2000/svg">
<path d="M6.68202 1.21147C6.61949 1.17422 6.56914 1.12039 6.53689 1.05627C6.50463 0.992159 6.4918 0.920419 6.49989 0.849457C6.50799 0.778494 6.53667 0.711248 6.58259 0.655595C6.62851 0.599942 6.68975 0.558186 6.75916 0.535219C8.1645 0.0616515 9.66059 -0.100614 11.1385 0.0602409C12.6163 0.221096 14.0387 0.701021 15.3021 1.46506C15.3491 1.49239 15.3896 1.52915 15.4209 1.5729C15.4522 1.61665 15.4736 1.66639 15.4836 1.71881C15.4936 1.77122 15.4921 1.82512 15.4791 1.87692C15.4661 1.92871 15.4419 1.97722 15.4082 2.01921C14.2871 3.40495 12.9185 4.58221 11.3681 5.49438C10.1134 3.77791 8.5204 2.32197 6.68202 1.21147V1.21147ZM9.98928 6.1988C8.57757 4.33041 6.72575 2.81969 4.58967 1.79379C4.5266 1.76596 4.45738 1.75396 4.38832 1.75888C4.31927 1.7638 4.25258 1.78549 4.19434 1.82197C2.46602 3.03454 1.17386 4.74674 0.501393 6.71538C0.485482 6.76535 0.480459 6.818 0.486647 6.86997C0.492835 6.92194 0.510098 6.97207 0.537329 7.01717C0.56456 7.06226 0.601159 7.10132 0.644782 7.13184C0.688406 7.16235 0.738092 7.18366 0.790658 7.19439C1.79825 7.40619 2.82608 7.51324 3.85687 7.51373C5.97499 7.51633 8.06806 7.06753 9.98928 6.1988V6.1988ZM19.9978 8.70656C19.7512 6.52796 18.7596 4.49347 17.1823 2.93027C17.1434 2.89332 17.097 2.86459 17.0462 2.84588C16.9953 2.82717 16.9411 2.81888 16.8868 2.82153C16.8325 2.82417 16.7793 2.83769 16.7306 2.86125C16.6819 2.88481 16.6388 2.9179 16.6038 2.95844C15.3845 4.47416 13.8912 5.76011 12.1973 6.75295C12.7257 7.64603 13.1648 8.58644 13.5087 9.56126C14.8886 9.19778 16.3121 9.01459 17.7416 9.0165C18.3537 9.01789 18.9654 9.05238 19.5736 9.11982C19.6308 9.12574 19.6886 9.11911 19.7429 9.10044C19.7971 9.08176 19.8464 9.05151 19.887 9.01188C19.9277 8.97226 19.9588 8.92428 19.9779 8.87145C19.9971 8.81862 20.0039 8.76228 19.9978 8.70656V8.70656ZM13.9329 11.0077C14.2162 12.1932 14.3586 13.4065 14.3572 14.6237C14.3565 15.7865 14.2239 16.9457 13.9619 18.0801C13.9447 18.1499 13.9484 18.223 13.9725 18.2908C13.9966 18.3585 14.0401 18.4182 14.0979 18.4626C14.1557 18.5071 14.2254 18.5345 14.2987 18.5416C14.3719 18.5487 14.4458 18.5352 14.5115 18.5028C15.9746 17.7899 17.2366 16.7396 18.1878 15.4431C19.139 14.1466 19.7504 12.6433 19.9689 11.064C19.9757 11.0146 19.9722 10.9644 19.9589 10.9163C19.9455 10.8682 19.9224 10.8232 19.891 10.7839C19.8596 10.7445 19.8205 10.7117 19.7759 10.6872C19.7314 10.6628 19.6823 10.6472 19.6314 10.6414C19.0052 10.558 18.3737 10.5172 17.7416 10.5193C16.4555 10.5177 15.1748 10.682 13.9329 11.0077V11.0077ZM12.0334 10.0309C11.7279 9.14085 11.3271 8.28458 10.8378 7.47616C8.6587 8.49267 6.27293 9.01909 3.85687 9.0165C2.72576 9.01591 1.59785 8.89943 0.491751 8.66899C0.438172 8.65816 0.382842 8.65856 0.329435 8.67017C0.276028 8.68177 0.225767 8.70431 0.181992 8.73629C0.138216 8.76827 0.101928 8.80896 0.0755373 8.85566C0.0491468 8.90235 0.0332581 8.95398 0.028927 9.00711C0.00964272 9.25758 6.35131e-07 9.51117 6.35131e-07 9.76789C-0.000488695 11.1053 0.281777 12.4284 0.82921 13.6549C1.37664 14.8814 2.17751 15.9849 3.18191 16.8967C3.2233 16.9354 3.27324 16.9644 3.3279 16.9814C3.38257 16.9984 3.4405 17.003 3.49727 16.9949C3.55404 16.9867 3.60814 16.966 3.65543 16.9343C3.70272 16.9027 3.74194 16.8609 3.77009 16.8122C5.65144 13.7011 8.56661 11.3088 12.0334 10.0309V10.0309ZM4.985 17.7702C4.95927 17.8132 4.9426 17.8609 4.93595 17.9103C4.9293 17.9597 4.93281 18.0099 4.94627 18.058C4.95973 18.106 4.98287 18.151 5.01435 18.1903C5.04583 18.2296 5.08502 18.2624 5.12963 18.2867C6.62398 19.1088 8.31168 19.5392 10.0278 19.5359C10.6131 19.5384 11.1973 19.4881 11.7731 19.3857C11.8397 19.3749 11.902 19.3464 11.9531 19.3033C12.0041 19.2602 12.0419 19.2042 12.0623 19.1415C12.5625 17.6851 12.8165 16.1594 12.8144 14.6237C12.8139 13.5654 12.6943 12.5103 12.4577 11.4773C9.29925 12.6775 6.66075 14.8994 4.985 17.7702V17.7702Z" fill="#CCCCCC"/>
</svg>
