<svg width="21" height="20" viewBox="0 0 21 20" fill="none" xmlns="http://www.w3.org/2000/svg">
<path d="M10.5 0C9.12112 0 7.75574 0.265079 6.48182 0.780103C5.2079 1.29513 4.05039 2.05001 3.07538 3.00165C1.10625 4.92357 0 7.53026 0 10.2483C0 14.778 3.0135 18.6211 7.182 19.9841C7.707 20.0661 7.875 19.7484 7.875 19.4717V17.7398C4.9665 18.3547 4.347 16.3665 4.347 16.3665C3.864 15.1777 3.1815 14.86 3.1815 14.86C2.226 14.2246 3.255 14.2451 3.255 14.2451C4.305 14.3168 4.8615 15.3007 4.8615 15.3007C5.775 16.8584 7.3185 16.3972 7.917 16.1513C8.0115 15.4851 8.2845 15.0342 8.5785 14.778C6.2475 14.5218 3.801 13.6404 3.801 9.73586C3.801 8.5983 4.2 7.6862 4.8825 6.95858C4.7775 6.70237 4.41 5.63655 4.9875 4.25303C4.9875 4.25303 5.8695 3.97633 7.875 5.29836C8.7045 5.07289 9.6075 4.96016 10.5 4.96016C11.3925 4.96016 12.2955 5.07289 13.125 5.29836C15.1305 3.97633 16.0125 4.25303 16.0125 4.25303C16.59 5.63655 16.2225 6.70237 16.1175 6.95858C16.8 7.6862 17.199 8.5983 17.199 9.73586C17.199 13.6507 14.742 14.5116 12.4005 14.7678C12.7785 15.0855 13.125 15.7106 13.125 16.6637V19.4717C13.125 19.7484 13.293 20.0764 13.8285 19.9841C17.997 18.6109 21 14.778 21 10.2483C21 8.90245 20.7284 7.5698 20.2007 6.32643C19.6731 5.08305 18.8996 3.95329 17.9246 3.00165C16.9496 2.05001 15.7921 1.29513 14.5182 0.780103C13.2443 0.265079 11.8789 0 10.5 0V0Z" fill="#CCCCCC"/>
</svg>
