<svg width="38" height="33" viewBox="0 0 38 33" fill="none" xmlns="http://www.w3.org/2000/svg">
<path fill-rule="evenodd" clip-rule="evenodd" d="M0 4.71429C0 3.46398 0.500445 2.26488 1.39124 1.38078C2.28204 0.496682 3.49022 0 4.75 0H33.25C34.5098 0 35.718 0.496682 36.6088 1.38078C37.4996 2.26488 38 3.46398 38 4.71429V28.2857C38 29.536 37.4996 30.7351 36.6088 31.6192C35.718 32.5033 34.5098 33 33.25 33H4.75C3.49022 33 2.28204 32.5033 1.39124 31.6192C0.500445 30.7351 0 29.536 0 28.2857V4.71429ZM7.82088 7.76207C8.26625 7.32018 8.87024 7.07193 9.5 7.07193C10.1298 7.07193 10.7337 7.32018 11.1791 7.76207L18.3041 14.8335C18.7494 15.2755 18.9995 15.875 18.9995 16.5C18.9995 17.125 18.7494 17.7245 18.3041 18.1665L11.1791 25.2379C10.7312 25.6673 10.1313 25.9049 9.50855 25.8995C8.88583 25.8941 8.29015 25.6462 7.84981 25.2092C7.40946 24.7722 7.15969 24.181 7.15427 23.5629C7.14886 22.9449 7.38825 22.3495 7.82088 21.9049L13.2668 16.5L7.82088 11.0951C7.37563 10.653 7.12551 10.0536 7.12551 9.42857C7.12551 8.80354 7.37563 8.2041 7.82088 7.76207ZM21.375 21.2143C20.7451 21.2143 20.141 21.4626 19.6956 21.9047C19.2502 22.3467 19 22.9463 19 23.5714C19 24.1966 19.2502 24.7961 19.6956 25.2382C20.141 25.6802 20.7451 25.9286 21.375 25.9286H28.5C29.1299 25.9286 29.734 25.6802 30.1794 25.2382C30.6248 24.7961 30.875 24.1966 30.875 23.5714C30.875 22.9463 30.6248 22.3467 30.1794 21.9047C29.734 21.4626 29.1299 21.2143 28.5 21.2143H21.375Z" fill="#FCA311"/>
</svg>
