<svg width="37" height="28" viewBox="0 0 37 28" fill="none" xmlns="http://www.w3.org/2000/svg">
<g clip-path="url(#clip0_22_27)">
<path d="M36.3058 7.21077L36.2609 6.90779L36.2142 6.91861C35.8954 5.41998 35.1607 4.04271 34.0954 2.94616C33.03 1.84961 31.6775 1.0786 30.1943 0.72234C28.7111 0.366078 27.1578 0.439126 25.7142 0.933031C24.2706 1.42694 22.9956 2.32151 22.0368 3.51325C21.078 4.70499 20.4746 6.14518 20.2964 7.66719C20.1182 9.1892 20.3724 10.7308 21.0297 12.1137C21.687 13.4965 22.7205 14.6641 24.0106 15.4813C25.3007 16.2985 26.7946 16.7319 28.3196 16.7314C28.7198 16.7314 29.1039 16.6701 29.4861 16.6142C29.3623 17.0326 29.2349 17.4582 29.0303 17.8405C28.8257 18.396 28.5063 18.8775 28.1886 19.3627C27.923 19.8875 27.4546 20.2428 27.11 20.6918C26.7493 21.1283 26.2576 21.4186 25.8682 21.7811C25.4859 22.1599 24.9852 22.3492 24.5868 22.6162C24.1704 22.856 23.8079 23.1211 23.4203 23.2474L22.453 23.6478L21.6023 24.003L22.4709 27.5L23.5423 27.2403C23.8851 27.1537 24.3032 27.0527 24.7788 26.9319C25.2652 26.8417 25.7838 26.5946 26.3617 26.3692C26.9306 26.1113 27.5928 25.94 28.2066 25.527C28.8239 25.1338 29.5364 24.8056 30.1645 24.279C30.7729 23.7361 31.5069 23.2654 32.0489 22.5765C32.6411 21.9308 33.2262 21.2527 33.6802 20.4808C34.206 19.745 34.5632 18.937 34.94 18.1381C35.281 17.3392 35.5556 16.5222 35.7799 15.7286C36.2053 14.138 36.3955 12.6266 36.4691 11.3335C36.5301 10.0386 36.4942 8.96196 36.4188 8.18285C36.3936 7.85749 36.3559 7.53322 36.3058 7.21077ZM16.5647 7.21077L16.5199 6.90779L16.4732 6.91861C16.1543 5.41998 15.4197 4.04271 14.3544 2.94616C13.289 1.84961 11.9365 1.0786 10.4533 0.72234C8.97006 0.366078 7.41678 0.439126 5.97315 0.933031C4.52952 1.42694 3.25456 2.32151 2.29578 3.51325C1.33699 4.70499 0.733578 6.14518 0.555348 7.66719C0.37712 9.1892 0.631362 10.7308 1.28866 12.1137C1.94595 13.4965 2.97944 14.6641 4.26953 15.4813C5.55963 16.2985 7.0536 16.7319 8.5786 16.7314C8.9788 16.7314 9.36285 16.6701 9.74511 16.6142C9.62128 17.0326 9.49386 17.4582 9.28927 17.8405C9.08468 18.396 8.76524 18.8775 8.44759 19.3627C8.18198 19.8875 7.71358 20.2428 7.36901 20.6918C7.00829 21.1283 6.51656 21.4186 6.12712 21.7811C5.74486 22.1599 5.24416 22.3492 4.84575 22.6162C4.42939 22.856 4.06687 23.1211 3.67923 23.2474L2.71192 23.6478C2.17174 23.8696 1.86306 23.9994 1.86306 23.9994L2.73166 27.4964L3.80306 27.2367C4.14584 27.1501 4.56399 27.0491 5.03957 26.9283C5.52592 26.8381 6.04457 26.591 6.62244 26.3656C7.19134 26.1077 7.85356 25.9364 8.46733 25.5234C9.08469 25.1302 9.79716 24.802 10.4253 24.2754C11.0337 23.7325 11.7677 23.2618 12.3097 22.5729C12.9019 21.9272 13.4869 21.2491 13.941 20.4772C14.4668 19.7414 14.8239 18.9334 15.2008 18.1345C15.5418 17.3355 15.8164 16.5186 16.0407 15.725C16.466 14.1344 16.6563 12.623 16.7298 11.3299C16.7909 10.035 16.755 8.95835 16.6796 8.17925C16.6528 7.85515 16.6145 7.53212 16.5647 7.21077Z" fill="white"/>
</g>
<defs>
<clipPath id="clip0_22_27">
<rect width="36" height="27" fill="white" transform="translate(0.5 0.5)"/>
</clipPath>
</defs>
</svg>
