<svg width="33" height="33" viewBox="0 0 33 33" fill="none" xmlns="http://www.w3.org/2000/svg">
<path fill-rule="evenodd" clip-rule="evenodd" d="M16.5 33C20.8761 33 25.0729 31.2616 28.1673 28.1673C31.2616 25.0729 33 20.8761 33 16.5C33 12.1239 31.2616 7.92709 28.1673 4.83274C25.0729 1.73839 20.8761 0 16.5 0C12.1239 0 7.92709 1.73839 4.83274 4.83274C1.73839 7.92709 0 12.1239 0 16.5C0 20.8761 1.73839 25.0729 4.83274 28.1673C7.92709 31.2616 12.1239 33 16.5 33ZM10.3125 14.4375C10.8595 14.4375 11.3841 14.2202 11.7709 13.8334C12.1577 13.4466 12.375 12.922 12.375 12.375C12.375 11.828 12.1577 11.3034 11.7709 10.9166C11.3841 10.5298 10.8595 10.3125 10.3125 10.3125C9.76549 10.3125 9.24089 10.5298 8.85409 10.9166C8.4673 11.3034 8.25 11.828 8.25 12.375C8.25 12.922 8.4673 13.4466 8.85409 13.8334C9.24089 14.2202 9.76549 14.4375 10.3125 14.4375ZM24.75 12.375C24.75 12.922 24.5327 13.4466 24.1459 13.8334C23.7591 14.2202 23.2345 14.4375 22.6875 14.4375C22.1405 14.4375 21.6159 14.2202 21.2291 13.8334C20.8423 13.4466 20.625 12.922 20.625 12.375C20.625 11.828 20.8423 11.3034 21.2291 10.9166C21.6159 10.5298 22.1405 10.3125 22.6875 10.3125C23.2345 10.3125 23.7591 10.5298 24.1459 10.9166C24.5327 11.3034 24.75 11.828 24.75 12.375ZM23.793 23.7909C23.9845 23.5993 24.1364 23.3718 24.2399 23.1215C24.3435 22.8712 24.3968 22.6029 24.3967 22.332C24.3966 22.0611 24.3431 21.7929 24.2394 21.5426C24.1356 21.2924 23.9836 21.065 23.792 20.8735C23.6003 20.682 23.3729 20.5302 23.1226 20.4266C22.8722 20.323 22.604 20.2697 22.3331 20.2698C22.0621 20.2699 21.7939 20.3234 21.5437 20.4271C21.2934 20.5309 21.0661 20.6829 20.8746 20.8746C19.7142 22.0345 18.1407 22.6862 16.5 22.6862C14.8593 22.6862 13.2858 22.0345 12.1254 20.8746C11.7387 20.4876 11.2141 20.27 10.6669 20.2698C10.1198 20.2696 9.59504 20.4868 9.20803 20.8735C8.82102 21.2603 8.60349 21.7849 8.6033 22.332C8.60311 22.8791 8.82026 23.4039 9.207 23.7909C10.1646 24.7488 11.3016 25.5087 12.5529 26.0271C13.8043 26.5455 15.1455 26.8124 16.5 26.8124C17.8545 26.8124 19.1957 26.5455 20.4471 26.0271C21.6984 25.5087 22.8354 24.7488 23.793 23.7909Z" fill="#FCA311"/>
</svg>
