<svg width="36" height="27" viewBox="0 0 36 27" fill="none" xmlns="http://www.w3.org/2000/svg">
<path d="M35.8058 6.71077L35.7609 6.40779L35.7142 6.41861C35.3954 4.91998 34.6607 3.54271 33.5954 2.44616C32.53 1.34961 31.1775 0.578602 29.6943 0.22234C28.2111 -0.133922 26.6578 -0.0608744 25.2142 0.433031C23.7706 0.926936 22.4956 1.82151 21.5368 3.01325C20.578 4.20499 19.9746 5.64518 19.7964 7.16719C19.6182 8.6892 19.8724 10.2308 20.5297 11.6137C21.187 12.9965 22.2205 14.1641 23.5106 14.9813C24.8007 15.7985 26.2946 16.2319 27.8196 16.2314C28.2198 16.2314 28.6039 16.1701 28.9861 16.1142C28.8623 16.5326 28.7349 16.9582 28.5303 17.3405C28.3257 17.896 28.0063 18.3775 27.6886 18.8627C27.423 19.3875 26.9546 19.7428 26.61 20.1918C26.2493 20.6283 25.7576 20.9186 25.3682 21.2811C24.9859 21.6599 24.4852 21.8492 24.0868 22.1162C23.6704 22.356 23.3079 22.6211 22.9203 22.7474L21.953 23.1478L21.1023 23.503L21.9709 27L23.0423 26.7403C23.3851 26.6537 23.8032 26.5527 24.2788 26.4319C24.7652 26.3417 25.2838 26.0946 25.8617 25.8692C26.4306 25.6113 27.0928 25.44 27.7066 25.027C28.3239 24.6338 29.0364 24.3056 29.6645 23.779C30.2729 23.2361 31.0069 22.7654 31.5489 22.0765C32.1411 21.4308 32.7262 20.7527 33.1802 19.9808C33.706 19.245 34.0632 18.437 34.44 17.6381C34.781 16.8392 35.0556 16.0222 35.2799 15.2286C35.7053 13.638 35.8955 12.1266 35.9691 10.8335C36.0301 9.53864 35.9942 8.46196 35.9188 7.68285C35.8936 7.35749 35.8559 7.03322 35.8058 6.71077ZM16.0647 6.71077L16.0199 6.40779L15.9732 6.41861C15.6543 4.91998 14.9197 3.54271 13.8544 2.44616C12.789 1.34961 11.4365 0.578602 9.95327 0.22234C8.47006 -0.133922 6.91678 -0.0608744 5.47315 0.433031C4.02952 0.926936 2.75456 1.82151 1.79578 3.01325C0.836993 4.20499 0.233578 5.64518 0.0553486 7.16719C-0.12288 8.6892 0.131362 10.2308 0.788658 11.6137C1.44595 12.9965 2.47944 14.1641 3.76953 14.9813C5.05963 15.7985 6.5536 16.2319 8.0786 16.2314C8.4788 16.2314 8.86285 16.1701 9.24511 16.1142C9.12128 16.5326 8.99386 16.9582 8.78927 17.3405C8.58468 17.896 8.26524 18.3775 7.94759 18.8627C7.68198 19.3875 7.21358 19.7428 6.86901 20.1918C6.50829 20.6283 6.01656 20.9186 5.62712 21.2811C5.24486 21.6599 4.74416 21.8492 4.34575 22.1162C3.92939 22.356 3.56687 22.6211 3.17923 22.7474L2.21192 23.1478C1.67174 23.3696 1.36306 23.4994 1.36306 23.4994L2.23166 26.9964L3.30306 26.7367C3.64584 26.6501 4.06399 26.5491 4.53957 26.4283C5.02592 26.3381 5.54457 26.091 6.12244 25.8656C6.69134 25.6077 7.35356 25.4364 7.96733 25.0234C8.58469 24.6302 9.29716 24.302 9.92528 23.7754C10.5337 23.2325 11.2677 22.7618 11.8097 22.0729C12.4019 21.4272 12.9869 20.7491 13.441 19.9772C13.9668 19.2414 14.3239 18.4334 14.7008 17.6345C15.0418 16.8355 15.3164 16.0186 15.5407 15.225C15.966 13.6344 16.1563 12.123 16.2298 10.8299C16.2909 9.53503 16.255 8.45835 16.1796 7.67925C16.1528 7.35515 16.1145 7.03212 16.0647 6.71077Z" fill="#FCA311"/>
</svg>
