<svg width="34" height="34" viewBox="0 0 34 34" fill="none" xmlns="http://www.w3.org/2000/svg">
<g clip-path="url(#clip0_22_13)">
<path fill-rule="evenodd" clip-rule="evenodd" d="M17 33.5C21.3761 33.5 25.5729 31.7616 28.6673 28.6673C31.7616 25.5729 33.5 21.3761 33.5 17C33.5 12.6239 31.7616 8.42709 28.6673 5.33274C25.5729 2.23839 21.3761 0.5 17 0.5C12.6239 0.5 8.42709 2.23839 5.33274 5.33274C2.23839 8.42709 0.5 12.6239 0.5 17C0.5 21.3761 2.23839 25.5729 5.33274 28.6673C8.42709 31.7616 12.6239 33.5 17 33.5ZM10.8125 14.9375C11.3595 14.9375 11.8841 14.7202 12.2709 14.3334C12.6577 13.9466 12.875 13.422 12.875 12.875C12.875 12.328 12.6577 11.8034 12.2709 11.4166C11.8841 11.0298 11.3595 10.8125 10.8125 10.8125C10.2655 10.8125 9.74089 11.0298 9.35409 11.4166C8.9673 11.8034 8.75 12.328 8.75 12.875C8.75 13.422 8.9673 13.9466 9.35409 14.3334C9.74089 14.7202 10.2655 14.9375 10.8125 14.9375ZM25.25 12.875C25.25 13.422 25.0327 13.9466 24.6459 14.3334C24.2591 14.7202 23.7345 14.9375 23.1875 14.9375C22.6405 14.9375 22.1159 14.7202 21.7291 14.3334C21.3423 13.9466 21.125 13.422 21.125 12.875C21.125 12.328 21.3423 11.8034 21.7291 11.4166C22.1159 11.0298 22.6405 10.8125 23.1875 10.8125C23.7345 10.8125 24.2591 11.0298 24.6459 11.4166C25.0327 11.8034 25.25 12.328 25.25 12.875ZM24.293 24.2909C24.4845 24.0993 24.6364 23.8718 24.7399 23.6215C24.8435 23.3712 24.8968 23.1029 24.8967 22.832C24.8966 22.5611 24.8431 22.2929 24.7394 22.0426C24.6356 21.7924 24.4836 21.565 24.292 21.3735C24.1003 21.182 23.8729 21.0302 23.6226 20.9266C23.3722 20.823 23.104 20.7697 22.8331 20.7698C22.5621 20.7699 22.2939 20.8234 22.0437 20.9271C21.7934 21.0309 21.5661 21.1829 21.3746 21.3746C20.2142 22.5345 18.6407 23.1862 17 23.1862C15.3593 23.1862 13.7858 22.5345 12.6254 21.3746C12.2387 20.9876 11.7141 20.77 11.1669 20.7698C10.6198 20.7696 10.095 20.9868 9.70803 21.3735C9.32102 21.7603 9.10349 22.2849 9.1033 22.832C9.10311 23.3791 9.32026 23.9039 9.707 24.2909C10.6646 25.2488 11.8016 26.0087 13.0529 26.5271C14.3043 27.0455 15.6455 27.3124 17 27.3124C18.3545 27.3124 19.6957 27.0455 20.9471 26.5271C22.1984 26.0087 23.3354 25.2488 24.293 24.2909Z" fill="white"/>
</g>
<defs>
<clipPath id="clip0_22_13">
<rect width="33" height="33" fill="white" transform="translate(0.5 0.5)"/>
</clipPath>
</defs>
</svg>
