<svg width="33" height="33" viewBox="0 0 33 33" fill="none" xmlns="http://www.w3.org/2000/svg">
<path d="M18.5625 2.0625C18.5625 1.51549 18.3452 0.990886 17.9584 0.604092C17.5716 0.217298 17.047 0 16.5 0C15.953 0 15.4284 0.217298 15.0416 0.604092C14.6548 0.990886 14.4375 1.51549 14.4375 2.0625V4.125C14.4375 4.67201 14.6548 5.19661 15.0416 5.58341C15.4284 5.9702 15.953 6.1875 16.5 6.1875C17.047 6.1875 17.5716 5.9702 17.9584 5.58341C18.3452 5.19661 18.5625 4.67201 18.5625 4.125V2.0625ZM28.1676 7.74881C28.5433 7.35982 28.7512 6.83883 28.7465 6.29805C28.7418 5.75727 28.5248 5.23997 28.1424 4.85756C27.76 4.47516 27.2427 4.25825 26.702 4.25355C26.1612 4.24885 25.6402 4.45674 25.2512 4.83244L23.793 6.29063C23.4173 6.67962 23.2094 7.20061 23.2141 7.74139C23.2188 8.28217 23.4357 8.79947 23.8181 9.18188C24.2005 9.56428 24.7178 9.78119 25.2586 9.78589C25.7994 9.79059 26.3204 9.5827 26.7094 9.207L28.1676 7.74881ZM33 16.5C33 17.047 32.7827 17.5716 32.3959 17.9584C32.0091 18.3452 31.4845 18.5625 30.9375 18.5625H28.875C28.328 18.5625 27.8034 18.3452 27.4166 17.9584C27.0298 17.5716 26.8125 17.047 26.8125 16.5C26.8125 15.953 27.0298 15.4284 27.4166 15.0416C27.8034 14.6548 28.328 14.4375 28.875 14.4375H30.9375C31.4845 14.4375 32.0091 14.6548 32.3959 15.0416C32.7827 15.4284 33 15.953 33 16.5ZM6.29063 9.207C6.48088 9.40399 6.70847 9.56112 6.9601 9.66921C7.21174 9.7773 7.48238 9.8342 7.75623 9.83658C8.03009 9.83896 8.30168 9.78677 8.55516 9.68307C8.80863 9.57937 9.03891 9.42622 9.23256 9.23256C9.42622 9.03891 9.57937 8.80863 9.68307 8.55516C9.78677 8.30168 9.83896 8.03009 9.83658 7.75623C9.8342 7.48238 9.7773 7.21174 9.66921 6.9601C9.56112 6.70847 9.40399 6.48088 9.207 6.29063L7.74881 4.83244C7.35982 4.45674 6.83883 4.24885 6.29805 4.25355C5.75727 4.25825 5.23997 4.47516 4.85756 4.85756C4.47516 5.23997 4.25825 5.75727 4.25355 6.29805C4.24885 6.83883 4.45674 7.35982 4.83244 7.74881L6.29063 9.207V9.207ZM6.1875 16.5C6.1875 17.047 5.9702 17.5716 5.58341 17.9584C5.19661 18.3452 4.67201 18.5625 4.125 18.5625H2.0625C1.51549 18.5625 0.990886 18.3452 0.604092 17.9584C0.217298 17.5716 0 17.047 0 16.5C0 15.953 0.217298 15.4284 0.604092 15.0416C0.990886 14.6548 1.51549 14.4375 2.0625 14.4375H4.125C4.67201 14.4375 5.19661 14.6548 5.58341 15.0416C5.9702 15.4284 6.1875 15.953 6.1875 16.5ZM12.375 28.875V26.8125H20.625V28.875C20.625 29.969 20.1904 31.0182 19.4168 31.7918C18.6432 32.5654 17.594 33 16.5 33C15.406 33 14.3568 32.5654 13.5832 31.7918C12.8096 31.0182 12.375 29.969 12.375 28.875V28.875ZM20.625 24.75C20.6559 24.0487 21.054 23.4176 21.6088 22.9783C22.955 21.9167 23.9369 20.462 24.4182 18.8165C24.8995 17.171 24.8562 15.4165 24.2944 13.7967C23.7325 12.177 22.68 10.7725 21.2831 9.77855C19.8863 8.78457 18.2144 8.25046 16.5 8.25046C14.7856 8.25046 13.1137 8.78457 11.7169 9.77855C10.32 10.7725 9.26748 12.177 8.70562 13.7967C8.14376 15.4165 8.10047 17.171 8.58177 18.8165C9.06306 20.462 10.045 21.9167 11.3912 22.9783C11.9481 23.4176 12.3441 24.0487 12.3729 24.75H20.6271H20.625Z" fill="#FCA311"/>
</svg>
