<svg width="39" height="34" viewBox="0 0 39 34" fill="none" xmlns="http://www.w3.org/2000/svg">
<g clip-path="url(#clip0_22_25)">
<path fill-rule="evenodd" clip-rule="evenodd" d="M0.5 5.21429C0.5 3.96398 1.00045 2.76488 1.89124 1.88078C2.78204 0.996682 3.99022 0.5 5.25 0.5H33.75C35.0098 0.5 36.218 0.996682 37.1088 1.88078C37.9996 2.76488 38.5 3.96398 38.5 5.21429V28.7857C38.5 30.036 37.9996 31.2351 37.1088 32.1192C36.218 33.0033 35.0098 33.5 33.75 33.5H5.25C3.99022 33.5 2.78204 33.0033 1.89124 32.1192C1.00045 31.2351 0.5 30.036 0.5 28.7857V5.21429ZM8.32088 8.26207C8.76625 7.82018 9.37024 7.57193 10 7.57193C10.6298 7.57193 11.2337 7.82018 11.6791 8.26207L18.8041 15.3335C19.2494 15.7755 19.4995 16.375 19.4995 17C19.4995 17.625 19.2494 18.2245 18.8041 18.6665L11.6791 25.7379C11.2312 26.1673 10.6313 26.4049 10.0085 26.3995C9.38583 26.3941 8.79015 26.1462 8.34981 25.7092C7.90946 25.2722 7.65969 24.681 7.65427 24.0629C7.64886 23.4449 7.88825 22.8495 8.32088 22.4049L13.7668 17L8.32088 11.5951C7.87563 11.153 7.62551 10.5536 7.62551 9.92857C7.62551 9.30354 7.87563 8.7041 8.32088 8.26207ZM21.875 21.7143C21.2451 21.7143 20.641 21.9626 20.1956 22.4047C19.7502 22.8467 19.5 23.4463 19.5 24.0714C19.5 24.6966 19.7502 25.2961 20.1956 25.7382C20.641 26.1802 21.2451 26.4286 21.875 26.4286H29C29.6299 26.4286 30.234 26.1802 30.6794 25.7382C31.1248 25.2961 31.375 24.6966 31.375 24.0714C31.375 23.4463 31.1248 22.8467 30.6794 22.4047C30.234 21.9626 29.6299 21.7143 29 21.7143H21.875Z" fill="white"/>
</g>
<defs>
<clipPath id="clip0_22_25">
<rect width="38" height="33" fill="white" transform="translate(0.5 0.5)"/>
</clipPath>
</defs>
</svg>
