<svg width="34" height="34" viewBox="0 0 34 34" fill="none" xmlns="http://www.w3.org/2000/svg">
<g clip-path="url(#clip0_22_19)">
<path d="M19.0625 2.5625C19.0625 2.01549 18.8452 1.49089 18.4584 1.10409C18.0716 0.717298 17.547 0.5 17 0.5C16.453 0.5 15.9284 0.717298 15.5416 1.10409C15.1548 1.49089 14.9375 2.01549 14.9375 2.5625V4.625C14.9375 5.17201 15.1548 5.69661 15.5416 6.08341C15.9284 6.4702 16.453 6.6875 17 6.6875C17.547 6.6875 18.0716 6.4702 18.4584 6.08341C18.8452 5.69661 19.0625 5.17201 19.0625 4.625V2.5625ZM28.6676 8.24881C29.0433 7.85982 29.2512 7.33883 29.2465 6.79805C29.2418 6.25727 29.0248 5.73997 28.6424 5.35756C28.26 4.97516 27.7427 4.75825 27.202 4.75355C26.6612 4.74885 26.1402 4.95674 25.7512 5.33244L24.293 6.79063C23.9173 7.17962 23.7094 7.70061 23.7141 8.24139C23.7188 8.78217 23.9357 9.29947 24.3181 9.68188C24.7005 10.0643 25.2178 10.2812 25.7586 10.2859C26.2994 10.2906 26.8204 10.0827 27.2094 9.707L28.6676 8.24881ZM33.5 17C33.5 17.547 33.2827 18.0716 32.8959 18.4584C32.5091 18.8452 31.9845 19.0625 31.4375 19.0625H29.375C28.828 19.0625 28.3034 18.8452 27.9166 18.4584C27.5298 18.0716 27.3125 17.547 27.3125 17C27.3125 16.453 27.5298 15.9284 27.9166 15.5416C28.3034 15.1548 28.828 14.9375 29.375 14.9375H31.4375C31.9845 14.9375 32.5091 15.1548 32.8959 15.5416C33.2827 15.9284 33.5 16.453 33.5 17ZM6.79063 9.707C6.98088 9.90399 7.20847 10.0611 7.4601 10.1692C7.71174 10.2773 7.98238 10.3342 8.25623 10.3366C8.53009 10.339 8.80168 10.2868 9.05516 10.1831C9.30863 10.0794 9.53891 9.92622 9.73256 9.73256C9.92622 9.53891 10.0794 9.30863 10.1831 9.05516C10.2868 8.80168 10.339 8.53009 10.3366 8.25623C10.3342 7.98238 10.2773 7.71174 10.1692 7.4601C10.0611 7.20847 9.90399 6.98088 9.707 6.79063L8.24881 5.33244C7.85982 4.95674 7.33883 4.74885 6.79805 4.75355C6.25727 4.75825 5.73997 4.97516 5.35756 5.35756C4.97516 5.73997 4.75825 6.25727 4.75355 6.79805C4.74885 7.33883 4.95674 7.85982 5.33244 8.24881L6.79063 9.707ZM6.6875 17C6.6875 17.547 6.4702 18.0716 6.08341 18.4584C5.69661 18.8452 5.17201 19.0625 4.625 19.0625H2.5625C2.01549 19.0625 1.49089 18.8452 1.10409 18.4584C0.717298 18.0716 0.5 17.547 0.5 17C0.5 16.453 0.717298 15.9284 1.10409 15.5416C1.49089 15.1548 2.01549 14.9375 2.5625 14.9375H4.625C5.17201 14.9375 5.69661 15.1548 6.08341 15.5416C6.4702 15.9284 6.6875 16.453 6.6875 17ZM12.875 29.375V27.3125H21.125V29.375C21.125 30.469 20.6904 31.5182 19.9168 32.2918C19.1432 33.0654 18.094 33.5 17 33.5C15.906 33.5 14.8568 33.0654 14.0832 32.2918C13.3096 31.5182 12.875 30.469 12.875 29.375ZM21.125 25.25C21.1559 24.5487 21.554 23.9176 22.1088 23.4783C23.455 22.4167 24.4369 20.962 24.9182 19.3165C25.3995 17.671 25.3562 15.9165 24.7944 14.2967C24.2325 12.677 23.18 11.2725 21.7831 10.2786C20.3863 9.28457 18.7144 8.75046 17 8.75046C15.2856 8.75046 13.6137 9.28457 12.2169 10.2786C10.82 11.2725 9.76748 12.677 9.20562 14.2967C8.64376 15.9165 8.60047 17.671 9.08177 19.3165C9.56306 20.962 10.545 22.4167 11.8912 23.4783C12.4481 23.9176 12.8441 24.5487 12.8729 25.25H21.1271H21.125Z" fill="white"/>
</g>
<defs>
<clipPath id="clip0_22_19">
<rect width="33" height="33" fill="white" transform="translate(0.5 0.5)"/>
</clipPath>
</defs>
</svg>
