<svg width="19" height="20" viewBox="0 0 19 20" fill="none" xmlns="http://www.w3.org/2000/svg">
<g clip-path="url(#clip0_22_23)">
<path d="M6.83333 10L8.61111 11.7778L12.1667 8.22222M17.5 10C17.5 11.0506 17.2931 12.0909 16.891 13.0615C16.489 14.0321 15.8997 14.914 15.1569 15.6569C14.414 16.3997 13.5321 16.989 12.5615 17.391C11.5909 17.7931 10.5506 18 9.5 18C8.44943 18 7.40914 17.7931 6.43853 17.391C5.46793 16.989 4.58601 16.3997 3.84315 15.6569C3.10028 14.914 2.511 14.0321 2.10896 13.0615C1.70693 12.0909 1.5 11.0506 1.5 10C1.5 7.87827 2.34285 5.84344 3.84315 4.34315C5.34344 2.84285 7.37827 2 9.5 2C11.6217 2 13.6566 2.84285 15.1569 4.34315C16.6571 5.84344 17.5 7.87827 17.5 10Z" stroke="white" stroke-width="2" stroke-linecap="round" stroke-linejoin="round"/>
</g>
<defs>
<clipPath id="clip0_22_23">
<rect width="18" height="19" fill="white" transform="translate(0.5 0.5)"/>
</clipPath>
</defs>
</svg>
