<svg width="20" height="20" viewBox="0 0 20 20" fill="none" xmlns="http://www.w3.org/2000/svg">
<path d="M10 7.34567C9.5095 7.34567 9.03002 7.48774 8.62219 7.75392C8.21435 8.02011 7.89648 8.39845 7.70878 8.84109C7.52107 9.28374 7.47196 9.77082 7.56765 10.2407C7.66334 10.7106 7.89954 11.1423 8.24638 11.4811C8.59321 11.8199 9.0351 12.0506 9.51618 12.1441C9.99725 12.2375 10.4959 12.1895 10.9491 12.0062C11.4022 11.8228 11.7895 11.5124 12.062 11.114C12.3346 10.7156 12.48 10.2472 12.48 9.76813C12.48 9.45001 12.4159 9.135 12.2912 8.84109C12.1666 8.54719 11.9839 8.28014 11.7536 8.05519C11.5233 7.83024 11.2499 7.6518 10.9491 7.53006C10.6482 7.40832 10.3257 7.34567 10 7.34567V7.34567ZM19.93 4.9525C19.9247 4.19818 19.7825 3.45074 19.51 2.74493C19.3093 2.22846 18.9987 1.75943 18.5988 1.3688C18.1989 0.97817 17.7187 0.674816 17.19 0.478755C16.4674 0.212541 15.7022 0.073637 14.93 0.0684981C13.64 0.000122005 13.26 0.00012207 10 0.00012207C6.74 0.00012207 6.36 0.000122005 5.07 0.0684981C4.29776 0.073637 3.53257 0.212541 2.81 0.478755C2.28126 0.674816 1.80109 0.97817 1.40119 1.3688C1.00128 1.75943 0.690718 2.22846 0.49 2.74493C0.217464 3.45074 0.0752609 4.19818 0.0699999 4.9525C-6.70552e-08 6.21258 0 6.58376 0 9.76813C0 12.9525 -6.70552e-08 13.3237 0.0699999 14.5838C0.0807639 15.3407 0.222774 16.0905 0.49 16.8011C0.689828 17.3152 1.00013 17.7815 1.4 18.1686C1.79819 18.5616 2.27939 18.8649 2.81 19.0575C3.53257 19.3237 4.29776 19.4626 5.07 19.4678C6.36 19.5361 6.74 19.5361 10 19.5361C13.26 19.5361 13.64 19.5361 14.93 19.4678C15.7022 19.4626 16.4674 19.3237 17.19 19.0575C17.7206 18.8649 18.2018 18.5616 18.6 18.1686C18.9999 17.7815 19.3102 17.3152 19.51 16.8011C19.7823 16.0918 19.9244 15.3412 19.93 14.5838C20 13.3237 20 12.9525 20 9.76813C20 6.58376 20 6.21258 19.93 4.9525V4.9525ZM17.39 12.7669C17.3579 13.3697 17.2262 13.9634 17 14.5252C16.8059 14.9937 16.5173 15.4194 16.1514 15.7768C15.7854 16.1342 15.3497 16.4161 14.87 16.6057C14.2895 16.8144 13.6783 16.9298 13.06 16.9476H6.94C6.32173 16.9298 5.71049 16.8144 5.13 16.6057C4.6341 16.4257 4.18628 16.1386 3.82 15.7657C3.45767 15.4153 3.17784 14.9919 3 14.5252C2.78556 13.9587 2.67061 13.361 2.66 12.7571V6.77912C2.67061 6.17529 2.78556 5.57754 3 5.01111C3.18428 4.52672 3.47827 4.08928 3.86 3.7315C4.22033 3.37949 4.65326 3.10644 5.13 2.93052C5.71049 2.72189 6.32173 2.60643 6.94 2.58864H13.06C13.6783 2.60643 14.2895 2.72189 14.87 2.93052C15.3659 3.11053 15.8137 3.3977 16.18 3.77057C16.5423 4.121 16.8222 4.54433 17 5.01111C17.2136 5.57813 17.3318 6.17519 17.35 6.77912V9.76813C17.35 11.7803 17.42 11.9855 17.39 12.7571V12.7669ZM15.79 5.49951C15.6709 5.18399 15.4832 4.89745 15.2398 4.65967C14.9964 4.42189 14.703 4.23852 14.38 4.12222C13.9365 3.97205 13.4693 3.89931 13 3.90733H7C6.52827 3.91183 6.06107 3.99781 5.62 4.16129C5.30193 4.27231 5.01169 4.44819 4.76858 4.67724C4.52547 4.90629 4.33506 5.18326 4.21 5.48974C4.06478 5.92478 3.99383 6.38019 4 6.83773V12.6985C4.00991 13.1588 4.09777 13.6143 4.26 14.0465C4.37906 14.362 4.56678 14.6486 4.81021 14.8864C5.05364 15.1241 5.34698 15.3075 5.67 15.4238C6.09667 15.5771 6.54565 15.6628 7 15.6778H13C13.4717 15.6733 13.9389 15.5873 14.38 15.4238C14.703 15.3075 14.9964 15.1241 15.2398 14.8864C15.4832 14.6486 15.6709 14.362 15.79 14.0465C15.9574 13.6157 16.0454 13.1593 16.05 12.6985V6.83773C16.0503 6.37648 15.9621 5.91926 15.79 5.48974V5.49951ZM10 13.4995C9.49882 13.4995 9.00257 13.4029 8.53966 13.2153C8.07676 13.0276 7.6563 12.7526 7.30238 12.406C6.94846 12.0594 6.66803 11.648 6.47714 11.1953C6.28626 10.7427 6.18868 10.2577 6.19 9.76813C6.19 9.02972 6.4143 8.30791 6.83449 7.69408C7.25468 7.08024 7.85187 6.60199 8.55047 6.31986C9.24907 6.03773 10.0177 5.96441 10.7589 6.10918C11.5002 6.25395 12.1808 6.6103 12.7147 7.13312C13.2485 7.65594 13.6116 8.32172 13.7578 9.04618C13.9041 9.77064 13.827 10.5212 13.5363 11.2028C13.2457 11.8845 12.7545 12.4666 12.125 12.8754C11.4955 13.2842 10.7559 13.5014 10 13.4995V13.4995ZM14 6.76935C13.7789 6.7465 13.5744 6.64454 13.4257 6.48312C13.277 6.3217 13.1947 6.11225 13.1947 5.89512C13.1947 5.67798 13.277 5.46853 13.4257 5.30711C13.5744 5.14569 13.7789 5.04373 14 5.02088C14.2211 5.04373 14.4256 5.14569 14.5743 5.30711C14.723 5.46853 14.8053 5.67798 14.8053 5.89512C14.8053 6.11225 14.723 6.3217 14.5743 6.48312C14.4256 6.64454 14.2211 6.7465 14 6.76935Z" fill="#CCCCCC"/>
</svg>
