<svg width="20" height="20" viewBox="0 0 20 20" fill="none" xmlns="http://www.w3.org/2000/svg">
<path d="M17.7778 0C18.3671 0 18.9324 0.228695 19.3491 0.635774C19.7659 1.04285 20 1.59497 20 2.17067V17.3653C20 17.941 19.7659 18.4932 19.3491 18.9002C18.9324 19.3073 18.3671 19.536 17.7778 19.536H2.22222C1.63285 19.536 1.06762 19.3073 0.650874 18.9002C0.234126 18.4932 0 17.941 0 17.3653V2.17067C0 1.59497 0.234126 1.04285 0.650874 0.635774C1.06762 0.228695 1.63285 0 2.22222 0H17.7778ZM17.2222 16.8227V11.0704C17.2222 10.132 16.8406 9.23207 16.1613 8.56853C15.482 7.90499 14.5607 7.53222 13.6 7.53222C12.6556 7.53222 11.5556 8.09659 11.0222 8.94315V7.73843H7.92222V16.8227H11.0222V11.472C11.0222 10.6363 11.7111 9.95252 12.5667 9.95252C12.9792 9.95252 13.3749 10.1126 13.6666 10.3976C13.9583 10.6825 14.1222 11.069 14.1222 11.472V16.8227H17.2222ZM4.31111 6.03446C4.80618 6.03446 5.28098 5.84236 5.63104 5.50041C5.98111 5.15846 6.17778 4.69468 6.17778 4.2111C6.17778 3.20174 5.34444 2.37688 4.31111 2.37688C3.81309 2.37688 3.33547 2.57013 2.98332 2.91411C2.63117 3.25809 2.43333 3.72463 2.43333 4.2111C2.43333 5.22046 3.27778 6.03446 4.31111 6.03446M5.85556 16.8227V7.73843H2.77778V16.8227H5.85556V16.8227Z" fill="#CCCCCC"/>
</svg>
